<svg id="Layer_1" xmlns="http://www.w3.org/2000/svg" viewBox="0 0 162.3 38"><style>.st0{fill:#fde000}.st1{fill:#2bace2}</style><g id="XMLID_11_"><path id="XMLID_133_" class="st0" d="M162.3 15.1c0 8.4-7 15.1-15.6 15.1s-15.6-6.8-15.6-15.1c0-8.4 7-15.1 15.6-15.1 8.7 0 15.6 6.8 15.6 15.1"/><path id="XMLID_131_" class="st0" d="M31.1 15.1c0 8.4-7 15.1-15.6 15.1C7 30.3 0 23.5 0 15.1 0 6.8 7 0 15.6 0s15.5 6.8 15.5 15.1"/><path id="XMLID_127_" class="st0" d="M63.9 22.9c0 8.4-7 15.1-15.6 15.1s-15.6-6.8-15.6-15.1c0-8.4 7-15.1 15.6-15.1 8.7-.1 15.6 6.7 15.6 15.1"/><path id="XMLID_126_" class="st0" d="M96.7 15.1c0 8.4-7 15.1-15.6 15.1s-15.6-6.8-15.6-15.1c0-8.4 7-15.1 15.6-15.1 8.7 0 15.6 6.8 15.6 15.1"/><path id="XMLID_125_" class="st0" d="M129.5 22.9c0 8.4-7 15.1-15.6 15.1s-15.6-6.8-15.6-15.1c0-8.4 7-15.1 15.6-15.1 8.7-.1 15.6 6.7 15.6 15.1"/><path id="XMLID_122_" class="st1" d="M45 22.9c0 1.9 1.4 3.4 3.3 3.4s3.3-1.4 3.3-3.3-1.4-3.4-3.3-3.4c-1.8-.1-3.2 1.3-3.3 3.3m3.3 5.8c-3.5 0-6.2-2.6-6.2-6 0-3.3 2.8-5.9 6.3-5.8 3.3 0 6.1 2.5 6 5.9.1 3.4-2.6 6-6.1 5.9"/><path id="XMLID_119_" class="st1" d="M10.4 9.5h10.3v2.4H17v8.9h-2.9v-8.9h-3.7z"/><path id="XMLID_118_" class="st1" d="M112.6 17.2h2.8v11.3h-2.8z"/><path id="XMLID_116_" class="st1" d="M83.9 9.5v6.6l-5.5-6.3c-.1-.1-.1-.2-.2-.2l-.2-.1h-2.4v11.3h2.9v-6.5l1.3 1.5c.3.3.6.7.9 1 1.1 1.3 2.2 2.5 3.4 3.8l.2.2h2.3V9.5h-2.7z"/><path id="XMLID_109_" class="st1" d="M145.1 18c-1-.6-1.5-1.7-1.5-2.8 0-1.1.6-2.2 1.5-2.8 1.6-1 3.7-.5 4.5 1.1h3.1c0-.2-.1-.3-.1-.5-1-2.8-4.1-4.1-7-3.5-2.6.5-4.5 2.6-4.8 5.1V16c.3 2.5 2.2 4.6 4.8 5.1 2.9.6 6-.7 7-3.5.1-.1.1-.3.1-.5h-3.1c-.8 1.4-2.8 1.9-4.5.9z"/></g></svg>