<svg xmlns="http://www.w3.org/2000/svg" viewBox="0 0 400 277.16"><defs><style>.cls-1{fill:none}.cls-2{fill:#ffe300}</style></defs><title>pattern_health</title><g id="Layer_2" data-name="Layer 2"><g id="Layer_1-2" data-name="Layer 1"><path class="cls-1" d="M240.24 174.8l-5 5 7.21 7.22a2 2 0 0 1-2.78 2.78l-7.21-7.21-3.75 3.75 7.22 7.22a2 2 0 0 1-2.78 2.78l-7.21-7.21-3.75 3.75 7.22 7.22a2 2 0 0 1-2.78 2.78l-7.21-7.22-5 5 14.43 14.43 25.91-25.91zM12.72 277.16c6.4-6.6 9.63-17.11-.27-27.16A82.57 82.57 0 0 1 0 233.42v43.74zM7.8 251.82a2 2 0 0 1 2.78 0c10.94 11.11 2.79 21 0 23.74a2 2 0 1 1-2.78-2.78c3.36-3.36 7.83-10.2 0-18.2a2 2 0 0 1 0-2.76zm95.37 2.12a14.86 14.86 0 0 0-29.72 0 2 2 0 0 1-2 2 14.86 14.86 0 0 0-13.41 21.26h45.1zm-3.85 1.39a2 2 0 0 1-3.32-1.39 7.65 7.65 0 0 0-13.06-5.41 2 2 0 1 1-2.78-2.78 11.59 11.59 0 0 1 19.77 8.19 2 2 0 0 1-.62 1.39z"/><path class="cls-1" transform="rotate(-45 216.395 213.066)" d="M213.05 208.32h6.7v9.5h-6.7z"/><path class="cls-1" d="M345.26 272.63a6.07 6.07 0 0 0-8.58 0l-4.53 4.53H347a6 6 0 0 0-1.74-4.53zM212.45 111.42a83.56 83.56 0 0 1-13.7-18.84A83.57 83.57 0 0 1 185 111.42c-10 10.19-6.59 20.86 0 27.43a19.39 19.39 0 0 0 27.42 0c6.58-6.58 10.07-17.24.03-27.43zM210.6 137a2 2 0 0 1-2.78-2.78c3.36-3.36 7.83-10.2 0-18.2a2 2 0 1 1 2.8-2.76c10.9 11.11 2.74 20.98-.02 23.74zM204 264.54a5.25 5.25 0 1 0-10.49 0v12.63H204zM4 173.22V156.8a2 2 0 0 1 2-2h16.38a5.25 5.25 0 1 0 0-10.49H6a2 2 0 0 1-2-2V126a5.25 5.25 0 0 0-4-5.09v57.39a5.25 5.25 0 0 0 4-5.08zM0 5.91A19.25 19.25 0 0 0 12.46.27l.26-.27H0z"/><path class="cls-1" d="M351 48a31.27 31.27 0 0 1 30.7 25.54h-4a27.29 27.29 0 0 0-53.92 3.93h7l5.95-17.72a2 2 0 0 1 3.79.2l7.18 32.46 7.53-26a2 2 0 0 1 2-1.42 2 2 0 0 1 1.77 1.65l3.54 21 4.21-9a2 2 0 0 1 1.78-1.13h13.62c0 .58.05 1.17.05 1.76a31.23 31.23 0 0 1-61.85 6.11h4a27.29 27.29 0 0 0 53.79-3.93h-8.4L363.42 95a2 2 0 0 1-3.72-.51l-3.16-18.69-7.28 25.2a2 2 0 0 1-1.89 1.42h-.06a2 2 0 0 1-1.86-1.54l-7.32-33.08L334 80.1a2 2 0 0 1-1.87 1.34h-12.31c0-.72-.08-1.44-.08-2.18A31.26 31.26 0 0 1 351 48zm-43.9 67.36V149a2 2 0 0 1-2 2h-33.62a18.8 18.8 0 0 1-1.87-37.5 18.8 18.8 0 0 1 37.5 1.88zm-53.38-85.8a11.32 11.32 0 0 1 10.35-3.06 2 2 0 0 1 1.52 1.5 11.29 11.29 0 0 1-11 13.66 11.39 11.39 0 0 1-2.36-.25 2 2 0 0 1-1.52-1.52 11.28 11.28 0 0 1 3.02-10.34zm-24.56 16.71c2.45-2.63 5.84-4 10.06-4a31.68 31.68 0 0 1 12.84 3.26 31.69 31.69 0 0 1 12.84-3.26c4.22 0 7.61 1.33 10.06 4 3.27 3.5 4.66 9.18 4.14 16.86-1.1 16-12.72 28.06-27 28.06s-25.95-12.06-27-28.06c-.61-7.68.78-13.35 4.06-16.86zM97.54 50.79a2 2 0 0 1 2.78 0c.77.77 1.54 1.47 2.31 2.12l7.75-7.75a2 2 0 0 1 2.78 2.78l-7.33 7.33a28.23 28.23 0 0 0 4.74 2.46l6.19-6.19a2 2 0 0 1 2.78 2.78l-4.75 4.75a36.7 36.7 0 0 0 6.31.88l4.47-4.47a2 2 0 1 1 2.78 2.78L126.63 60c1.67-.06 3.35-.16 5-.27a74.32 74.32 0 0 0 .11-12.18l-4.51 4.51a2 2 0 1 1-2.78-2.78l6.55-6.52a28.85 28.85 0 0 0-1.57-4.76l-5.15 5.15a2 2 0 0 1-2.78-2.78l6-6a32.93 32.93 0 0 0-4.8-6 2 2 0 0 1 2.78-2.78c10.92 10.93 10.88 22.53 10.12 33.85 11.25-.77 22.79-.94 33.5 9.77a2 2 0 0 1-2.75 2.79c-.73-.73-1.46-1.39-2.2-2l-8.91 8.91a2 2 0 0 1-2.78-2.78l8.49-8.49a27.24 27.24 0 0 0-4.81-2.44 1.85 1.85 0 0 1-.19.23l-7.09 7.09a2 2 0 1 1-2.78-2.78l5.82-5.82a37.37 37.37 0 0 0-6.4-.8l-4.75 4.75a2 2 0 0 1-2.75-2.78l1.95-1.95c-1.51.06-3 .16-4.56.27a79 79 0 0 0-.19 11.78l3.2-3.2a2 2 0 0 1 2.78 2.78L135.93 80h-.06a28.42 28.42 0 0 0 1.5 4.78l8.18-8.18a2 2 0 1 1 2.78 2.78l-9 9-.1.08a31.39 31.39 0 0 0 4.69 5.92 2 2 0 1 1-2.78 2.78c-10.71-10.71-10.54-22.25-9.77-33.5-11.32.76-22.92.81-33.85-10.12a2 2 0 0 1 .02-2.75zM28.76 81.3a2 2 0 0 1-1.39-.58l-2.47-2.46-6.13 6.13a2 2 0 0 1-2.78 0L12.64 81l-8.9 8.9A2 2 0 0 1 1 87.15l8.9-8.9-3.4-3.36a2 2 0 0 1 0-2.78L12.62 66l-2.47-2.47a2 2 0 0 1 0-2.78L24.5 46.39 38.85 32a2 2 0 0 1 2.78 0l7.22 7.22 3.3-3.3-4.45-4.41a2 2 0 1 1 2.78-2.78L62.16 40.4a2 2 0 1 1-2.78 2.78l-4.45-4.45-3.3 3.27 7.21 7.22a2 2 0 0 1 0 2.78L30.15 80.73a2 2 0 0 1-1.39.57zM79.1 201.71c-1.1 16-12.72 28.06-27 28.06s-25.95-12.06-27-28.06c-.53-7.68.87-13.36 4.14-16.86 2.45-2.63 5.84-4 10.06-4a31.68 31.68 0 0 1 12.84 3.26 31.69 31.69 0 0 1 12.84-3.26c4.22 0 7.61 1.33 10.06 4 3.19 3.51 4.59 9.15 4.06 16.86zm-25.37-33.58a11.32 11.32 0 0 1 10.35-3.06 2 2 0 0 1 1.52 1.52 11.29 11.29 0 0 1-11 13.66 11.39 11.39 0 0 1-2.36-.25 2 2 0 0 1-1.52-1.52 11.28 11.28 0 0 1 3.01-10.35zm22.71-38.56l-8.69-8.69a20.29 20.29 0 0 1-26.93-1.54l-5.95-5.95-2.12 2.12a2 2 0 0 1-2.75-2.77l3.51-3.51a2 2 0 0 1 2.78 0l7.34 7.34a16.33 16.33 0 1 0 23.1-23.1l-7.34-7.34a2 2 0 0 1 0-2.78l3.51-3.51a2 2 0 1 1 2.78 2.78l-2.11 2.12 5.95 5.95a20.29 20.29 0 0 1 1.09 27.47l8.65 8.65a12.19 12.19 0 1 0 17.23-17.23l-.48-.48a7.61 7.61 0 1 1 2.78-2.78l.48.48a16.12 16.12 0 0 1-22.8 22.8zm29.14 58.31a10 10 0 1 1-14.14-14.14l42.47-42.47A10 10 0 1 1 148 145.41zM151 249.07A31.28 31.28 0 0 1 120.34 224h4a27.29 27.29 0 0 0 53.83-4h-8.4l-6.35 13.57a2 2 0 0 1-3.72-.51l-3.16-18.71-7.28 25.16a2 2 0 0 1-1.89 1.42h-.06a2 2 0 0 1-1.86-1.54l-7.32-33.08-4.13 12.37a2 2 0 0 1-1.87 1.34h-12.31c0-.72-.08-1.44-.08-2.18a31.23 31.23 0 0 1 61.93-5.69h-4a27.29 27.29 0 0 0-53.92 3.93h7l5.95-17.72a2 2 0 0 1 3.79.2l7.14 32.44 7.53-26a2 2 0 0 1 2-1.42 2 2 0 0 1 1.83 1.64l3.54 21 4.21-9a2 2 0 0 1 1.78-1.13h13.62c0 .58.05 1.17.05 1.76A31.26 31.26 0 0 1 151 249.07zm31.29-107.44c-9.94-9.94-9.95-22.89 0-33a79.82 79.82 0 0 0 14.7-21.3 2 2 0 0 1 1.8-1.18 2 2 0 0 1 1.8 1.18 80.08 80.08 0 0 0 14.7 21.3c9.94 10.09 9.94 23 0 33a23.32 23.32 0 0 1-33 0zm45.12 77.68l-2.47-2.47-6.17 6.16a2 2 0 0 1-2.78 0l-3.36-3.36-8.9 8.9a2 2 0 0 1-2.78-2.78l8.9-8.9-3.36-3.36a2 2 0 0 1 0-2.78l6.13-6.13-2.47-2.47a2 2 0 0 1 0-2.78L224.5 185l14.34-14.34a2 2 0 0 1 2.78 0l7.22 7.22 3.3-3.3-4.44-4.45a2 2 0 1 1 2.78-2.78L262.16 179a2 2 0 1 1-2.78 2.78l-4.45-4.45-3.3 3.3 7.21 7.22a2 2 0 0 1 0 2.78l-28.69 28.69a2 2 0 0 1-2.78 0zm71.86 48.85a16.14 16.14 0 0 1-22.8 0l-8.69-8.69a20.29 20.29 0 0 1-26.93-1.54l-5.98-5.93-2.12 2.12a2 2 0 0 1-2.78-2.78l3.51-3.51a2 2 0 0 1 2.78 0l7.34 7.34a16.33 16.33 0 1 0 23.1-23.1l-7.34-7.34a2 2 0 0 1 0-2.78l3.51-3.51a2 2 0 1 1 2.78 2.78l-2.11 2.12 5.95 5.95a20.29 20.29 0 0 1 1.09 27.47l8.65 8.65a12.19 12.19 0 0 0 17.23-17.23l-.48-.48a7.61 7.61 0 1 1 2.78-2.78l.48.48a16.14 16.14 0 0 1-.01 22.76zm69.9-57.58a2 2 0 0 1-2.78 0c-.73-.73-1.46-1.39-2.2-2l-8.91 8.91a2 2 0 0 1-2.78-2.78l8.49-8.49a27.24 27.24 0 0 0-4.81-2.44 1.84 1.84 0 0 1-.19.23l-7.09 7.09a2 2 0 0 1-2.78-2.78l5.82-5.82a37.37 37.37 0 0 0-6.4-.8l-4.75 4.75a2 2 0 0 1-2.78-2.78l1.95-1.95c-1.51.06-3 .16-4.56.27a79 79 0 0 0-.19 11.78l3.2-3.2a2 2 0 1 1 2.78 2.78l-5.22 5.22h-.06a28.42 28.42 0 0 0 1.5 4.78l8.18-8.18a2 2 0 1 1 2.78 2.78l-9 9-.1.08a31.39 31.39 0 0 0 4.69 5.92 2 2 0 0 1-2.78 2.78c-10.71-10.71-10.54-22.25-9.77-33.5-11.32.76-22.92.81-33.85-10.12a2 2 0 0 1 2.78-2.78c.77.77 1.54 1.47 2.31 2.12l7.75-7.75a2 2 0 0 1 2.78 2.78l-7.33 7.33a28.23 28.23 0 0 0 4.74 2.46l6.19-6.19a2 2 0 0 1 2.78 2.78l-4.75 4.75a36.7 36.7 0 0 0 6.31.88l4.47-4.47a2 2 0 1 1 2.78 2.78l-1.73 1.73c1.67-.06 3.35-.16 5-.27a74.32 74.32 0 0 0 .11-12.18l-4.51 4.51a2 2 0 0 1-2.78-2.78l6.51-6.51a28.85 28.85 0 0 0-1.56-4.72l-5.15 5.15a2 2 0 1 1-2.76-2.73l6-6a32.93 32.93 0 0 0-4.8-6 2 2 0 0 1 2.78-2.78c10.92 10.93 10.88 22.53 10.12 33.85 11.25-.77 22.79-.94 33.5 9.77a2 2 0 0 1 .03 2.74zM294.21 37.95a6.07 6.07 0 0 0-.53 8 8 8 0 0 1 2.32-6.2l21.38-21.37 6.78 6.78L345.26 4A6 6 0 0 0 347 0h-14.84zm104.54 82.76a5.25 5.25 0 0 0-5.25 5.29v16.42a2 2 0 0 1-2 2h-16.38a5.25 5.25 0 1 0 0 10.49h16.42a2 2 0 0 1 2 2v16.42a5.22 5.22 0 0 0 6.5 5.09v-57.55a5.22 5.22 0 0 0-1.29-.16zM193.5 3.79a2 2 0 0 1-2 2h-16.38a5.25 5.25 0 1 0 0 10.49h16.42a2 2 0 0 1 2 2v16.36a5.25 5.25 0 1 0 10.49 0V18.22a2 2 0 0 1 2-2h16.42a5.25 5.25 0 1 0 0-10.49H206a2 2 0 0 1-2-2V0h-10.5zM384.77 0l.26.27A19.27 19.27 0 0 0 398.75 6H400V0z"/><circle class="cls-1" cx="292.16" cy="241.07" r="3.68" transform="rotate(-45 292.165 241.071)"/><path class="cls-1" d="M71.48 8.47h31.69V0h-45.1a14.88 14.88 0 0 0 13.41 8.47zM400 233.42c-.47-.82-.89-1.58-1.25-2.26A83.57 83.57 0 0 1 385 250c-9.9 10.06-6.68 20.57-.27 27.16H400zM40.24 36.22l-5 5 7.21 7.22a2 2 0 0 1-2.78 2.78L32.42 44l-3.75 3.75L35.89 55a2 2 0 0 1-2.78 2.78l-7.21-7.21-3.75 3.75 7.22 7.22a2 2 0 0 1-2.78 2.78l-7.21-7.22-5 5 14.38 14.45 25.91-25.9zm211.82 51.04c12.43 0 22.15-10.26 23.12-24.4.45-6.55-.59-11.23-3.09-13.9a9.39 9.39 0 0 0-7.19-2.71 28.45 28.45 0 0 0-12 3.27 2 2 0 0 1-1.74 0 28.46 28.46 0 0 0-12-3.27A9.39 9.39 0 0 0 232 49c-2.5 2.67-3.54 7.35-3.09 13.91 1 14.09 10.72 24.35 23.15 24.35z"/><path class="cls-1" transform="rotate(-45 16.394 74.49)" d="M13.05 69.74h6.7v9.5h-6.7z"/><path class="cls-1" d="M261.91 30.18a7.36 7.36 0 0 0-7.55 7.55 7.36 7.36 0 0 0 7.55-7.55zm-200 138.58a7.36 7.36 0 0 0-7.55 7.55 7.36 7.36 0 0 0 7.55-7.55zm209.57-51.44a14.86 14.86 0 0 0 0 29.72h31.69v-31.68a14.86 14.86 0 0 0-29.72 0 2 2 0 0 1-1.97 1.96zm8.64-10.16a11.59 11.59 0 0 1 19.77 8.19 2 2 0 1 1-3.93 0 7.65 7.65 0 0 0-13.06-5.41 2 2 0 1 1-2.78-2.78z"/><circle class="cls-1" cx="92.16" cy="102.49" r="3.68" transform="rotate(-45 92.164 102.494)"/><path class="cls-1" d="M64.9 184.82a28.45 28.45 0 0 0-12 3.27 2 2 0 0 1-1.74 0 28.46 28.46 0 0 0-12-3.27 9.39 9.39 0 0 0-7.16 2.72c-2.5 2.67-3.54 7.35-3.09 13.91 1 14.13 10.69 24.39 23.12 24.39s22.15-10.26 23.12-24.4c.45-6.55-.59-11.23-3.09-13.9a9.39 9.39 0 0 0-7.16-2.72zm71.78-50.77l-42.47 42.48a6.07 6.07 0 0 0-.53 8 8 8 0 0 1 2.32-6.2L117.38 157l6.78 6.78 21.1-21.1a6.07 6.07 0 0 0-8.58-8.58z"/><path class="cls-2" d="M333.9 269.85l-7.31 7.31h5.56l4.53-4.53a6.06 6.06 0 0 1 10.32 4.53h4a10 10 0 0 0-17.05-7.31zM389.57 126v14.45h-14.45a9.18 9.18 0 1 0 0 18.36h14.45v14.45A9.11 9.11 0 0 0 400 182.3v-4a5.22 5.22 0 0 1-6.5-5.09V156.8a2 2 0 0 0-2-2h-16.38a5.25 5.25 0 1 1 0-10.49h16.42a2 2 0 0 0 2-2V126a5.22 5.22 0 0 1 6.5-5.09v-4a9.11 9.11 0 0 0-10.47 9.09zm9.17 98.76a2 2 0 0 0-1.8 1.18 79.82 79.82 0 0 1-14.7 21.3c-8.95 9.09-9.83 20.49-2.66 29.92h5.19c-6.4-6.6-9.63-17.11.27-27.16a83.57 83.57 0 0 0 13.7-18.84c.36.68.78 1.44 1.25 2.26v-8.21a2 2 0 0 0-1.25-.46zM335.63 198c.76-11.32.81-22.92-10.12-33.85a2 2 0 0 0-2.78 2.78 32.93 32.93 0 0 1 4.8 6l-6 6a2 2 0 1 0 2.78 2.78l5.15-5.15a28.85 28.85 0 0 1 1.56 4.72l-6.51 6.51a2 2 0 0 0 2.78 2.78l4.51-4.51a74.32 74.32 0 0 1-.11 12.18c-1.69.12-3.37.22-5 .27l1.73-1.73a2 2 0 1 0-2.78-2.78l-4.47 4.47a36.7 36.7 0 0 1-6.31-.88l4.75-4.75a2 2 0 0 0-2.78-2.78l-6.19 6.19a28.23 28.23 0 0 1-4.74-2.46l7.33-7.33a2 2 0 0 0-2.78-2.78l-7.75 7.75c-.77-.65-1.54-1.35-2.31-2.12a2 2 0 0 0-2.78 2.78c10.93 10.92 22.53 10.88 33.85 10.12-.77 11.25-.94 22.79 9.77 33.5a2 2 0 0 0 2.78-2.78 31.39 31.39 0 0 1-4.69-5.92l.1-.08 9-9a2 2 0 1 0-2.78-2.78l-8.18 8.18a28.42 28.42 0 0 1-1.5-4.78h.06l5.22-5.22a2 2 0 1 0-2.78-2.78l-3.2 3.2a79 79 0 0 1 .19-11.78c1.53-.11 3-.2 4.56-.27l-2.01 1.97a2 2 0 0 0 2.78 2.78l4.75-4.75a37.37 37.37 0 0 1 6.4.8l-5.82 5.82a2 2 0 0 0 2.78 2.78l7.09-7.09a1.84 1.84 0 0 0 .19-.23 27.24 27.24 0 0 1 4.81 2.44l-8.49 8.49a2 2 0 0 0 2.78 2.78l8.91-8.91c.74.62 1.47 1.28 2.2 2a2 2 0 1 0 2.78-2.78c-10.74-10.71-22.28-10.54-33.53-9.8zm-136.88 57.36a9.19 9.19 0 0 0-9.18 9.18v12.63h3.93v-12.63a5.25 5.25 0 1 1 10.49 0v12.63h3.94v-12.63a9.19 9.19 0 0 0-9.18-9.18zM88.31 235.14a18.8 18.8 0 0 0-18.7 16.92 18.8 18.8 0 0 0-15.8 25.1h4.26a14.86 14.86 0 0 1 13.41-21.26 2 2 0 0 0 2-2 14.86 14.86 0 1 1 29.72 0v23.23h3.93v-23.19a18.82 18.82 0 0 0-18.82-18.8z"/><path class="cls-2" d="M88.31 242.35a11.5 11.5 0 0 0-8.19 3.39 2 2 0 1 0 2.78 2.78 7.65 7.65 0 0 1 13.1 5.42 2 2 0 1 0 3.93 0 11.59 11.59 0 0 0-11.58-11.58zM7.93 173.22v-14.45h14.45a9.18 9.18 0 1 0 0-18.36H7.93V126A9.19 9.19 0 0 0 0 116.87v4A5.25 5.25 0 0 1 4 126v16.42a2 2 0 0 0 2 2h16.38a5.25 5.25 0 1 1 0 10.49H6a2 2 0 0 0-2 2v16.42a5.25 5.25 0 0 1-4 5.09v4a9.19 9.19 0 0 0 7.93-9.2zm7.32 74.02a80.08 80.08 0 0 1-14.7-21.3 2 2 0 0 0-.55-.72v8.21A82.57 82.57 0 0 0 12.45 250c9.91 10.06 6.68 20.57.27 27.16h5.19c7.17-9.44 6.29-20.84-2.66-29.92z"/><path class="cls-2" d="M7.82 272.8a2 2 0 1 0 2.78 2.78c2.76-2.76 10.92-12.63 0-23.74a2 2 0 1 0-2.8 2.76c7.85 8 3.38 14.83.02 18.2zm57.08-91.91a31.69 31.69 0 0 0-12.84 3.26 31.68 31.68 0 0 0-12.84-3.26c-4.22 0-7.61 1.33-10.06 4-3.27 3.5-4.66 9.18-4.14 16.86 1.09 16 12.72 28.06 27 28.06s25.94-12.06 27-28.06c.53-7.68-.87-13.35-4.14-16.86-2.37-2.67-5.76-4-9.98-4zm10.28 20.55c-1 14.14-10.69 24.4-23.12 24.4s-22.15-10.26-23.12-24.39c-.45-6.55.59-11.23 3.09-13.91a9.39 9.39 0 0 1 7.19-2.71 28.46 28.46 0 0 1 12 3.27 2 2 0 0 0 1.74 0 28.45 28.45 0 0 1 12-3.27 9.39 9.39 0 0 1 7.19 2.71c2.43 2.67 3.47 7.35 3.03 13.9zm-23-21.44a11.39 11.39 0 0 0 2.36.25 11.29 11.29 0 0 0 11-13.66 2 2 0 0 0-1.52-1.52 11.3 11.3 0 0 0-13.41 13.41 2 2 0 0 0 1.57 1.52zm4.32-9.09a7.33 7.33 0 0 1 5.4-2.15 7.36 7.36 0 0 1-7.55 7.55 7.33 7.33 0 0 1 2.16-5.39zM291.43 49.3a10 10 0 0 0 14.14 0L348 6.83A10 10 0 0 0 351 0h-4a6 6 0 0 1-1.76 4l-21.1 21.1-6.78-6.78L296 39.75a8 8 0 0 0-2.33 6.16 6.07 6.07 0 0 1 .53-8L332.16 0h-5.56l-35.17 35.16a10 10 0 0 0 0 14.14zm40.7 32.14A2 2 0 0 0 334 80.1l4.14-12.34 7.32 33.08a2 2 0 0 0 1.86 1.54h.06a2 2 0 0 0 1.89-1.42l7.28-25.16 3.16 18.71a2 2 0 0 0 3.72.51l6.35-13.57h8.4a27.29 27.29 0 0 1-53.79 3.93h-4a31.23 31.23 0 0 0 61.85-6.11c0-.59 0-1.17-.05-1.76h-13.67a2 2 0 0 0-1.78 1.13l-4.21 9-3.54-21a2 2 0 0 0-1.83-1.64 2 2 0 0 0-2 1.42l-7.53 26L340.45 60a2 2 0 0 0-3.79-.2l-5.95 17.72h-7a27.29 27.29 0 0 1 53.92-3.93h4a31.23 31.23 0 0 0-61.93 5.69c0 .73 0 1.46.08 2.18zm66.62-71.55H400V5.91h-1.25A19.27 19.27 0 0 1 385 .27l-.23-.27h-5.19a29.88 29.88 0 0 0 2.67 3.05 23.17 23.17 0 0 0 16.5 6.84zM269.6 113.48a18.8 18.8 0 0 0 1.87 37.5h33.66a2 2 0 0 0 2-2v-33.62a18.8 18.8 0 0 0-37.5-1.88zm18.7-13a14.88 14.88 0 0 1 14.86 14.86V147h-31.68a14.86 14.86 0 0 1 0-29.72 2 2 0 0 0 2-2 14.86 14.86 0 0 1 14.86-14.86z"/><path class="cls-2" d="M282.9 109.95a7.65 7.65 0 0 1 13.1 5.4 2 2 0 1 0 3.93 0 11.58 11.58 0 0 0-19.77-8.19 2 2 0 1 0 2.78 2.78zM148 131.27a10 10 0 0 0-14.14 0l-42.43 42.48a10 10 0 1 0 14.14 14.14L148 145.41a10 10 0 0 0 0-14.14zm-2.78 11.36l-21.1 21.1-6.74-6.73L96 178.33a8 8 0 0 0-2.33 6.16 6.07 6.07 0 0 1 .53-8l42.47-42.47a6.07 6.07 0 0 1 8.58 8.58zm29.9-140.8a9.18 9.18 0 1 0 0 18.36h14.45v14.45a9.18 9.18 0 0 0 18.36 0V20.18h14.45a9.18 9.18 0 1 0 0-18.36h-14.45V0H204v3.79a2 2 0 0 0 2 2h16.42a5.25 5.25 0 1 1 0 10.49H206a2 2 0 0 0-2 2v16.36a5.25 5.25 0 1 1-10.49 0V18.22a2 2 0 0 0-2-2h-16.39a5.25 5.25 0 1 1 0-10.49h16.42a2 2 0 0 0 2-2V0h-3.93v1.83zm83.72 188.79a2 2 0 0 0 0-2.78l-7.21-7.22 3.3-3.3 4.45 4.45a2 2 0 0 0 2.78-2.78l-11.67-11.67a2 2 0 1 0-2.78 2.78l4.44 4.45-3.3 3.3-7.22-7.22a2 2 0 0 0-2.78 0L224.5 185l-14.34 14.34a2 2 0 0 0 0 2.78l2.47 2.47-6.13 6.13a2 2 0 0 0 0 2.78l3.36 3.36-8.9 8.9a2 2 0 1 0 2.78 2.78l8.9-8.9L216 223a2 2 0 0 0 2.78 0l6.13-6.13 2.47 2.47a2 2 0 0 0 2.78 0zm-41.46 28.18l-6.72-6.72 4.74-4.73 6.72 6.72zm-3.06-18.09l5-5 7.21 7.22a2 2 0 1 0 2.78-2.78l-7.22-7.22 3.75-3.75 7.21 7.21a2 2 0 1 0 2.78-2.78l-7.22-7.22 3.75-3.75 7.21 7.21a2 2 0 0 0 2.78-2.78l-7.21-7.22 5-5 14.43 14.43-25.91 25.91zm84.43 44.17a7.61 7.61 0 1 0-2.78 2.78l.48.48a12.19 12.19 0 0 1-17.23 17.23l-8.65-8.65a20.29 20.29 0 0 0-1.09-27.47l-5.95-5.95 2.11-2.12a2 2 0 1 0-2.78-2.78l-3.51 3.51a2 2 0 0 0 0 2.78l7.34 7.34a16.33 16.33 0 1 1-23.1 23.1l-7.34-7.34a2 2 0 0 0-2.78 0l-3.47 3.53a2 2 0 0 0 2.78 2.78l2.12-2.12 5.95 5.95a20.29 20.29 0 0 0 26.93 1.54l8.69 8.69a16.12 16.12 0 1 0 22.8-22.8zm-4-1.2a3.68 3.68 0 1 1 0-5.2 3.68 3.68 0 0 1 .02 5.2zm-126.23-27.59a2 2 0 0 0-1.78 1.13l-4.21 9-3.54-21a2 2 0 0 0-1.83-1.64 2 2 0 0 0-2 1.42l-7.53 26-7.18-32.46a2 2 0 0 0-3.79-.2l-5.95 17.72h-7a27.29 27.29 0 0 1 53.92-3.93h4a31.23 31.23 0 0 0-61.93 5.69c0 .73 0 1.46.08 2.18h12.31a2 2 0 0 0 1.87-1.34l4.14-12.34 7.32 33.08a2 2 0 0 0 1.86 1.54h.06a2 2 0 0 0 1.89-1.42l7.28-25.16 3.16 18.71a2 2 0 0 0 3.72.51l6.38-13.58h8.4a27.29 27.29 0 0 1-53.8 4h-4a31.23 31.23 0 0 0 61.85-6.11c0-.59 0-1.17-.05-1.76zm46.73-107.43a80.08 80.08 0 0 1-14.7-21.3 2 2 0 0 0-1.8-1.18 2 2 0 0 0-1.8 1.18 79.82 79.82 0 0 1-14.7 21.3c-9.94 10.09-9.93 23 0 33a23.32 23.32 0 0 0 33 0c9.93-9.97 9.94-22.91 0-33zm-16.5 35.88a19.27 19.27 0 0 1-13.75-5.69c-6.58-6.58-10-17.24 0-27.43a83.57 83.57 0 0 0 13.7-18.84 83.56 83.56 0 0 0 13.7 18.84c10 10.19 6.59 20.86 0 27.43a19.27 19.27 0 0 1-13.65 5.68z"/><path class="cls-2" d="M210.58 113.26a2 2 0 1 0-2.8 2.76c7.88 8 3.41 14.83 0 18.2a2 2 0 1 0 2.82 2.78c2.76-2.76 10.92-12.63-.02-23.74zm-79.2-49.57c-.77 11.25-.94 22.79 9.77 33.5a2 2 0 1 0 2.78-2.78 31.39 31.39 0 0 1-4.69-5.92l.1-.08 9-9a2 2 0 1 0-2.78-2.78l-8.18 8.18a28.42 28.42 0 0 1-1.5-4.78h.06l5.22-5.22a2 2 0 0 0-2.8-2.81l-3.2 3.2a79 79 0 0 1 .19-11.78c1.53-.11 3-.2 4.56-.27L138 65.09a2 2 0 0 0 2.78 2.78l4.75-4.75a37.37 37.37 0 0 1 6.4.8l-5.82 5.82a2 2 0 1 0 2.78 2.78l7.09-7.09a1.85 1.85 0 0 0 .19-.23 27.24 27.24 0 0 1 4.81 2.44l-8.49 8.49a2 2 0 0 0 2.78 2.78l8.88-8.91c.74.62 1.47 1.28 2.2 2a2 2 0 0 0 2.78-2.78c-10.71-10.71-22.25-10.54-33.5-9.77.76-11.32.81-22.92-10.12-33.85a2 2 0 0 0-2.78 2.78 32.93 32.93 0 0 1 4.8 6l-6 6a2 2 0 0 0 2.78 2.78l5.12-5.16a28.85 28.85 0 0 1 1.57 4.76l-6.51 6.51a2 2 0 1 0 2.78 2.78l4.51-4.51a74.32 74.32 0 0 1-.11 12.18c-1.69.12-3.37.22-5 .27l1.73-1.73a2 2 0 1 0-2.78-2.78L121.11 60a36.7 36.7 0 0 1-6.31-.88l4.75-4.75a2 2 0 0 0-2.78-2.78l-6.19 6.19a28.23 28.23 0 0 1-4.74-2.46l7.33-7.33a2 2 0 0 0-2.78-2.78l-7.75 7.75c-.77-.65-1.54-1.35-2.31-2.12a2 2 0 1 0-2.78 2.78c10.91 10.88 22.52 10.83 33.83 10.07zm120.68 27.5c14.32 0 25.94-12.06 27-28.06.53-7.68-.87-13.35-4.14-16.86-2.46-2.63-5.84-4-10.06-4a31.69 31.69 0 0 0-12.84 3.26 31.68 31.68 0 0 0-12.84-3.26c-4.22 0-7.61 1.33-10.06 4-3.27 3.5-4.66 9.18-4.14 16.86 1.13 16 12.76 28.06 27.08 28.06zM232 49a9.39 9.39 0 0 1 7.19-2.71 28.46 28.46 0 0 1 12 3.27 2 2 0 0 0 1.74 0 28.45 28.45 0 0 1 12-3.27 9.39 9.39 0 0 1 7.16 2.71c2.5 2.67 3.54 7.35 3.09 13.9-1 14.14-10.69 24.4-23.12 24.4S229.91 77 228.94 62.86c-.45-6.55.59-11.23 3.06-13.86zm20.18-7.58a11.39 11.39 0 0 0 2.36.25 11.29 11.29 0 0 0 11-13.66 2 2 0 0 0-1.52-1.52 11.3 11.3 0 0 0-13.41 13.41 2 2 0 0 0 1.57 1.52zm4.32-9.09a7.33 7.33 0 0 1 5.4-2.15 7.36 7.36 0 0 1-7.55 7.55 7.33 7.33 0 0 1 2.16-5.39zM71.48 12.4h33.66a2 2 0 0 0 2-2V0h-3.93v8.47H71.48A14.88 14.88 0 0 1 58.07 0h-4.26a18.83 18.83 0 0 0 17.67 12.4zM58.84 52a2 2 0 0 0 0-2.78L51.63 42l3.3-3.3 4.45 4.45a2 2 0 0 0 2.78-2.78L50.48 28.73a2 2 0 1 0-2.78 2.78L52.15 36l-3.3 3.3-7.22-7.3a2 2 0 0 0-2.78 0L24.5 46.38 10.16 60.73a2 2 0 0 0 0 2.78L12.62 66 6.5 72.11a2 2 0 0 0 0 2.78l3.36 3.36L1 87.15a2 2 0 1 0 2.78 2.78l8.9-8.9L16 84.39a2 2 0 0 0 2.78 0l6.13-6.13 2.47 2.47a2 2 0 0 0 2.78 0zM17.39 80.21l-6.72-6.71 4.74-4.73 6.72 6.72zm-3.06-18.09l5-5 7.21 7.22a2 2 0 1 0 2.78-2.78l-7.22-7.22 3.75-3.75 7.21 7.21a2 2 0 1 0 2.83-2.8l-7.22-7.22L32.42 44l7.21 7.21a2 2 0 0 0 2.78-2.78l-7.21-7.18 5-5 14.47 14.4-25.91 25.9zm84.9 44.66l-.48-.48a7.61 7.61 0 1 0-2.75 2.78l.48.48a12.19 12.19 0 1 1-17.26 17.24l-8.65-8.65a20.29 20.29 0 0 0-1.09-27.47l-5.95-5.95 2.11-2.12a2 2 0 1 0-2.78-2.78l-3.51 3.51a2 2 0 0 0 0 2.78l7.34 7.34a16.33 16.33 0 1 1-23.1 23.1l-7.34-7.34a2 2 0 0 0-2.78 0L30 112.74a2 2 0 0 0 2.78 2.78l2.12-2.12 5.95 5.95a20.29 20.29 0 0 0 26.93 1.54l8.69 8.69a16.12 16.12 0 0 0 22.8-22.8zm-4.47-1.68a3.68 3.68 0 1 1 0-5.2 3.68 3.68 0 0 1 .01 5.2zM17.91 0h-5.19l-.26.27A19.25 19.25 0 0 1 0 5.91v3.94a23.15 23.15 0 0 0 15.24-6.8A29.88 29.88 0 0 0 17.91 0z"/></g></g></svg>