<svg id="Layer_1" data-name="Layer 1" xmlns="http://www.w3.org/2000/svg" viewBox="0 0 24 24"><defs><style>.cls-1{fill:#1995d3}.cls-2{fill:none}</style></defs><title>icon_tonic_partners</title><circle class="cls-1" cx="10.37" cy="11.84" r=".45"/><circle class="cls-1" cx="13.97" cy="11.84" r=".45"/><path class="cls-1" d="M18.17 6.7a.9.9 0 0 0-.87-.87l-4.35-.14a.9.9 0 0 0-.66.26L6 12.29a.9.9 0 0 0 0 1.27l4.5 4.5a.9.9 0 0 0 1.27 0L18 11.71a.9.9 0 0 0 .26-.66zm-7.8 6.3a1.13 1.13 0 1 1 1.13-1.13A1.13 1.13 0 0 1 10.37 13zm2.12 1a.34.34 0 0 1-.68 0V9.67a.34.34 0 0 1 .68 0zM14 13a1.13 1.13 0 1 1 1.13-1.13A1.13 1.13 0 0 1 14 13zm3-5.49a.5.5 0 1 1 .5-.5.5.5 0 0 1-.5.5z"/><path class="cls-2" d="M0 0h24v24H0z"/></svg>