<svg id="Layer_1" data-name="Layer 1" xmlns="http://www.w3.org/2000/svg" viewBox="0 0 24 24"><defs><style>.cls-1{fill:#1995d3}.cls-2{fill:none}</style></defs><title>icon_doctor_calls</title><path class="cls-1" d="M5 12.72a10 10 0 0 0 1.17 1.92A17.55 17.55 0 0 0 7.39 16a13.08 13.08 0 0 0 1.07 1 8.6 8.6 0 0 0 1.27 1 5.31 5.31 0 0 0 1.68.65c.19 0 .38 0 .57.07h.78a2.69 2.69 0 0 0 .95-.27c.26-.13.51-.29.76-.44a1.29 1.29 0 0 0 .19-.15l.55-.5a1.17 1.17 0 0 0 .35-.53v-.26a1.91 1.91 0 0 0-.58-.87c-.16-.16-.35-.3-.52-.45a3.8 3.8 0 0 0-1-.7 1.08 1.08 0 0 0-1.15.09 11.14 11.14 0 0 0-.85.75.89.89 0 0 1-.93.22 3.11 3.11 0 0 1-1.2-.79 9.83 9.83 0 0 1-1.3-1.48 3.24 3.24 0 0 1-.67-1.39.84.84 0 0 1 .27-.79c.24-.22.51-.4.76-.61a1.18 1.18 0 0 0 .49-.93 1.62 1.62 0 0 0-.2-.79C8.51 8.4 8.26 8 8 7.63A2.25 2.25 0 0 0 7.41 7 2.14 2.14 0 0 0 7 6.78h-.12a3.81 3.81 0 0 0-.46.2 2.45 2.45 0 0 0-.33.27 5.28 5.28 0 0 0-.5.43 5.67 5.67 0 0 0-.55.7 3.33 3.33 0 0 0-.5 1.37v1.27a5.67 5.67 0 0 0 .46 1.7zm14.5-4.69h-2.75V5.28h-2.29v2.75h-2.75v2.29h2.75v2.75h2.29v-2.75h2.75V8.03z"/><path class="cls-2" d="M0 0h24v24H0z"/></svg>