<svg id="Layer_1" data-name="Layer 1" xmlns="http://www.w3.org/2000/svg" viewBox="0 0 24 24"><defs><style>.cls-1{fill:none}</style></defs><title>icon_map_view</title><path d="M12 4a4 4 0 0 0-4 3.8c0 3.12 3.19 3.45 4 8.2.81-4.75 4-5.08 4-8.2A4 4 0 0 0 12 4zm0 5.33A1.33 1.33 0 1 1 13.33 8 1.33 1.33 0 0 1 12 9.33zM20 20l-4.47-1.62L12 20l-3.72-1.62L4 20l2.67-6 2.64-1.06A7.58 7.58 0 0 1 10 14.1l-2.33.9-1.15 2.62L8.3 17l1-1.79-.42 2 2.79 1.19L12 17l.31 1.35 2.77-1.26-.41-2 1 1.93 1.82.66L16.37 15 14 14.1a7.46 7.46 0 0 1 .71-1.15L17.38 14z"/><path class="cls-1" d="M0 0h24v24H0z"/></svg>